<?xml version="1.0" encoding="UTF-8"?><svg id="Livello_1" xmlns="http://www.w3.org/2000/svg" width="27.51mm" height="133.12mm" viewBox="0 0 77.99 377.36"><defs><style>.cls-1{fill:#2b76b6;}</style></defs><path class="cls-1" d="M69.55,371.42H5.12v-19.47l43.95-11.69-43.95-11.56v-19.51H69.55v12.08H18.83l50.71,12.79v12.52l-50.71,12.74h50.71v12.08Z"/><path class="cls-1" d="M69.55,296.67H5.12v-13.01H69.55v13.01Z"/><path class="cls-1" d="M48.58,274.56l-1.23-12.66c4.25-.76,7.37-2.31,9.36-4.64,1.99-2.33,2.99-5.47,2.99-9.43,0-4.19-.89-7.35-2.66-9.47-1.77-2.12-3.85-3.19-6.22-3.19-1.52,0-2.82,.45-3.89,1.34-1.07,.89-2,2.45-2.79,4.68-.53,1.52-1.46,5-2.81,10.42-1.73,6.97-3.85,11.87-6.37,14.68-3.54,3.96-7.87,5.93-12.96,5.93-3.28,0-6.35-.93-9.21-2.79-2.86-1.86-5.03-4.54-6.53-8.04-1.49-3.5-2.24-7.73-2.24-12.68,0-8.09,1.77-14.17,5.32-18.26,3.54-4.09,8.28-6.23,14.19-6.44l.57,13.01c-3.31,.56-5.69,1.75-7.14,3.58-1.45,1.83-2.18,4.58-2.18,8.24s.78,6.74,2.33,8.88c1,1.38,2.33,2.07,4,2.07,1.52,0,2.83-.64,3.91-1.93,1.38-1.64,2.81-5.62,4.31-11.95s3.04-11.01,4.64-14.04c1.6-3.03,3.78-5.41,6.55-7.12s6.19-2.57,10.26-2.57c3.69,0,7.15,1.03,10.37,3.08,3.22,2.05,5.62,4.95,7.18,8.7,1.57,3.75,2.35,8.42,2.35,14.02,0,8.15-1.88,14.4-5.65,18.76-3.76,4.37-9.25,6.97-16.46,7.82Z"/><path class="cls-1" d="M48.58,214.53l-1.23-12.66c4.25-.76,7.37-2.31,9.36-4.64,1.99-2.33,2.99-5.47,2.99-9.43,0-4.19-.89-7.35-2.66-9.47-1.77-2.12-3.85-3.19-6.22-3.19-1.52,0-2.82,.45-3.89,1.34-1.07,.89-2,2.45-2.79,4.68-.53,1.52-1.46,5-2.81,10.42-1.73,6.97-3.85,11.87-6.37,14.68-3.54,3.96-7.87,5.93-12.96,5.93-3.28,0-6.35-.93-9.21-2.79-2.86-1.86-5.03-4.54-6.53-8.04-1.49-3.5-2.24-7.73-2.24-12.68,0-8.09,1.77-14.17,5.32-18.26,3.54-4.09,8.28-6.23,14.19-6.44l.57,13.01c-3.31,.56-5.69,1.75-7.14,3.58-1.45,1.83-2.18,4.58-2.18,8.24s.78,6.74,2.33,8.88c1,1.38,2.33,2.07,4,2.07,1.52,0,2.83-.64,3.91-1.93,1.38-1.64,2.81-5.62,4.31-11.95s3.04-11.01,4.64-14.04c1.6-3.03,3.78-5.4,6.55-7.12,2.77-1.71,6.19-2.57,10.26-2.57,3.69,0,7.15,1.03,10.37,3.08,3.22,2.05,5.62,4.95,7.18,8.7,1.57,3.75,2.35,8.42,2.35,14.02,0,8.15-1.88,14.4-5.65,18.76-3.76,4.37-9.25,6.97-16.46,7.82Z"/><path class="cls-1" d="M69.55,151.6H5.12v-13.01H69.55v13.01Z"/><path class="cls-1" d="M37.73,128.84c-6.56,0-12.07-.98-16.52-2.94-3.28-1.46-6.23-3.46-8.83-6-2.61-2.53-4.54-5.31-5.8-8.33-1.7-4.01-2.55-8.64-2.55-13.89,0-9.49,2.94-17.09,8.83-22.79s14.08-8.55,24.57-8.55,18.54,2.83,24.41,8.48c5.88,5.65,8.81,13.21,8.81,22.68s-2.92,17.2-8.77,22.85c-5.85,5.65-13.89,8.48-24.15,8.48Zm-.44-13.4c7.29,0,12.83-1.68,16.59-5.05,3.76-3.37,5.65-7.65,5.65-12.83s-1.87-9.44-5.6-12.77c-3.74-3.32-9.34-4.99-16.81-4.99s-12.89,1.62-16.52,4.86c-3.63,3.24-5.45,7.54-5.45,12.9s1.84,9.68,5.52,12.96c3.68,3.28,9.22,4.92,16.63,4.92Z"/><path class="cls-1" d="M69.55,56.06H5.12v-12.66L48.14,17.04H5.12V4.96H69.55v13.05L27.53,43.98h42.01v12.08Z"/></svg>